<svg xmlns="http://www.w3.org/2000/svg" viewBox="0 0 766 89" width="766" height="89"><path fill="#84664A" fill-rule="evenodd" d="M223.0 81.5C223.0 80.6 223.9 80.0 225.4 80.0C231.4 80.0 236.8 76.2 240.3 69.5C242.1 66.1 242.5 63.3 242.8 51.2L243.2 37.0L246.1 37.0L249.0 37.0L249.0 47.9L249.0 58.8L252.1 59.4C253.8 59.7 269.8 60.0 287.5 60.0L319.8 60.0L320.4 56.9C320.7 55.2 321.0 48.4 321.0 41.8L321.0 29.9L323.8 30.2L326.5 30.5L326.8 45.2L327.1 60.0L393.8 60.0C430.5 60.0 462.1 59.7 464.1 59.4C467.8 58.8 467.8 58.8 465.8 56.8C461.2 52.2 459.4 40.0 462.4 34.2C470.8 18.1 494.7 21.9 497.5 39.8C498.4 45.5 496.6 51.9 492.9 55.9C491.3 57.7 490.0 59.2 490.0 59.3C490.0 59.6 511.2 59.5 517.2 59.2C520.5 59.1 522.7 58.3 524.7 56.6C527.4 54.3 527.5 53.8 528.0 42.3L528.5 30.5L531.2 30.2L534.0 29.9L534.0 41.7C534.0 54.7 532.9 58.1 527.3 61.7C524.7 63.4 518.3 63.5 400.5 63.6C332.3 63.7 270.2 63.8 262.5 63.9L248.4 64.0L247.2 68.4C244.9 77.1 237.1 82.9 227.8 83.0C224.2 83.0 223.0 82.6 223.0 81.5ZM552.0 78.5C552.0 77.7 552.5 77.0 553.1 77.0C553.7 77.0 553.9 76.2 553.5 75.0C552.1 70.7 556.9 66.8 561.0 69.0C564.0 70.6 563.4 71.6 559.6 71.2C557.1 70.9 556.1 71.3 555.6 72.5C554.6 75.1 556.8 77.0 560.6 77.0C563.0 77.0 564.0 77.5 564.0 78.5C564.0 79.7 562.7 80.0 558.0 80.0C553.3 80.0 552.0 79.7 552.0 78.5ZM556.0 35.4L556.0 6.9L558.8 7.2L561.5 7.5L561.5 35.5L561.5 63.5L558.8 63.7L556.0 63.9L556.0 35.4ZM207.0 35.0L207.0 7.0L210.0 7.0L213.0 7.0L213.0 35.0L213.0 63.0L210.0 63.0L207.0 63.0L207.0 35.0ZM485.5 55.8C493.5 49.5 492.7 34.0 484.1 29.5C480.3 27.6 477.7 27.6 474.0 29.5C466.2 33.5 465.1 48.3 472.0 55.2C475.6 58.8 481.4 59.1 485.5 55.8ZM7.5 47.0C7.2 46.5 7.2 46.0 7.7 46.0C8.6 45.9 155.4 46.0 160.8 46.0C162.5 46.0 164.0 46.5 164.0 47.0C164.0 48.4 8.4 48.4 7.5 47.0ZM602.0 47.0C602.0 46.5 603.5 46.0 605.2 46.0C703.1 45.4 759.4 45.6 759.7 46.8C760.1 47.7 743.9 48.0 681.1 48.0C629.0 48.0 602.0 47.7 602.0 47.0ZM528.2 18.8C525.4 16.0 528.1 11.3 532.0 12.5C533.4 12.9 534.0 14.0 534.0 16.0C534.0 19.6 530.7 21.3 528.2 18.8ZM310.2 15.8C307.2 12.8 310.2 8.3 314.5 9.4C318.6 10.5 317.4 17.0 313.0 17.0C312.1 17.0 310.9 16.5 310.2 15.8ZM321.2 15.8C318.5 13.1 320.6 9.0 324.7 9.0C326.3 9.0 327.1 9.7 327.6 11.5C328.7 15.8 324.2 18.8 321.2 15.8ZM476.5 14.0C474.2 11.4 475.5 8.5 479.0 8.5C482.0 8.5 483.9 11.4 482.4 13.8C480.8 16.3 478.6 16.4 476.5 14.0Z"/></svg>